<svg aria-hidden="true" style="position: absolute; width: 0; height: 0; overflow: hidden;" version="1.1" xmlns="http://www.w3.org/2000/svg" xmlns:xlink="http://www.w3.org/1999/xlink">
<defs>
<symbol id="icon-discount" viewBox="0 0 63 32">
<path fill="#fff" style="fill: var(--color1, #fff)" d="M10.192 31.52c-1.511 0-2.933-0.312-4.264-0.936-1.317-0.624-2.454-1.491-3.411-2.6s-1.643-2.399-2.059-3.869l5.45-1.456c0.18 0.707 0.499 1.317 0.957 1.83 0.471 0.513 1.012 0.915 1.622 1.206 0.624 0.277 1.262 0.416 1.914 0.416 0.86 0 1.643-0.208 2.35-0.624 0.721-0.416 1.29-0.978 1.706-1.685 0.43-0.707 0.645-1.491 0.645-2.35s-0.215-1.643-0.645-2.35c-0.416-0.707-0.985-1.269-1.706-1.685-0.707-0.416-1.491-0.624-2.35-0.624-1.054 0-1.914 0.18-2.579 0.541-0.666 0.347-1.165 0.68-1.498 0.998l-4.784-1.456 0.915-15.933h16.349v5.283h-13.229l1.997-1.872-0.624 10.275-0.957-1.165c0.749-0.61 1.602-1.054 2.558-1.331s1.851-0.416 2.683-0.416c1.886 0 3.543 0.423 4.971 1.269 1.442 0.832 2.565 1.983 3.37 3.453 0.818 1.456 1.227 3.127 1.227 5.013s-0.492 3.591-1.477 5.117c-0.985 1.512-2.281 2.718-3.89 3.619-1.608 0.887-3.356 1.331-5.242 1.331z"></path>
<path fill="#fff" style="fill: var(--color1, #fff)" d="M34.814 31.52c-2.219 0-4.16-0.465-5.824-1.394s-2.96-2.226-3.89-3.89c-0.929-1.664-1.394-3.605-1.394-5.824v-8.986c0-2.219 0.465-4.16 1.394-5.824s2.226-2.961 3.89-3.89c1.664-0.929 3.605-1.394 5.824-1.394s4.16 0.465 5.824 1.394c1.664 0.929 2.961 2.226 3.89 3.89s1.394 3.605 1.394 5.824v8.986c0 2.219-0.465 4.16-1.394 5.824s-2.226 2.96-3.89 3.89c-1.664 0.929-3.605 1.394-5.824 1.394zM34.814 26.154c0.998 0 1.9-0.236 2.704-0.707s1.442-1.109 1.914-1.914c0.471-0.804 0.707-1.706 0.707-2.704v-9.859c0-0.998-0.236-1.9-0.707-2.704s-1.109-1.442-1.914-1.914c-0.804-0.471-1.706-0.707-2.704-0.707s-1.9 0.236-2.704 0.707c-0.804 0.471-1.442 1.109-1.914 1.914s-0.707 1.706-0.707 2.704v9.859c0 0.998 0.236 1.9 0.707 2.704s1.109 1.442 1.914 1.914c0.804 0.471 1.706 0.707 2.704 0.707z"></path>
<path fill="#fff" style="fill: var(--color1, #fff)" d="M49.434 30.896l-0.96-0.96 12.893-12.864 0.96 0.95-12.893 12.874zM59.446 31.184c-0.634 0-1.213-0.154-1.738-0.461-0.518-0.314-0.934-0.73-1.248-1.248-0.314-0.525-0.47-1.107-0.47-1.747 0-0.627 0.16-1.203 0.48-1.728s0.742-0.944 1.267-1.258c0.525-0.314 1.094-0.47 1.709-0.47 0.634 0 1.213 0.157 1.738 0.47 0.525 0.307 0.941 0.723 1.248 1.248 0.314 0.518 0.47 1.098 0.47 1.738s-0.157 1.222-0.47 1.747c-0.307 0.518-0.723 0.934-1.248 1.248-0.525 0.307-1.104 0.461-1.738 0.461zM59.446 29.907c0.39 0 0.752-0.099 1.085-0.298s0.598-0.461 0.797-0.787c0.198-0.333 0.298-0.698 0.298-1.094s-0.099-0.758-0.298-1.085c-0.198-0.333-0.464-0.598-0.797-0.797s-0.694-0.298-1.085-0.298c-0.397 0-0.762 0.099-1.094 0.298-0.326 0.198-0.592 0.464-0.797 0.797-0.198 0.326-0.298 0.688-0.298 1.085s0.099 0.762 0.298 1.094c0.205 0.326 0.47 0.589 0.797 0.787 0.333 0.198 0.698 0.298 1.094 0.298zM51.354 23.696c-0.634 0-1.213-0.154-1.738-0.461-0.525-0.314-0.944-0.73-1.258-1.248-0.307-0.525-0.461-1.107-0.461-1.747 0-0.627 0.16-1.203 0.48-1.728s0.742-0.944 1.267-1.258c0.525-0.314 1.094-0.47 1.709-0.47 0.634 0 1.21 0.157 1.728 0.47 0.525 0.307 0.944 0.723 1.258 1.248 0.314 0.518 0.47 1.098 0.47 1.738s-0.157 1.222-0.47 1.747c-0.314 0.518-0.733 0.934-1.258 1.248-0.518 0.307-1.094 0.461-1.728 0.461zM51.354 22.419c0.397 0 0.758-0.099 1.085-0.298 0.333-0.198 0.598-0.461 0.797-0.787 0.198-0.333 0.298-0.698 0.298-1.094s-0.099-0.758-0.298-1.085c-0.198-0.333-0.464-0.598-0.797-0.797-0.326-0.198-0.688-0.298-1.085-0.298s-0.762 0.099-1.094 0.298c-0.326 0.198-0.589 0.464-0.787 0.797-0.198 0.326-0.298 0.688-0.298 1.085s0.099 0.762 0.298 1.094c0.198 0.326 0.461 0.589 0.787 0.787 0.333 0.198 0.698 0.298 1.094 0.298z"></path>
</symbol>
<symbol id="icon-reservation" viewBox="0 0 30 32">
<path fill="none" stroke="#fff" style="stroke: var(--color1, #fff)" stroke-linejoin="round" stroke-linecap="round" stroke-miterlimit="4" stroke-width="3.5556" d="M24.69 5.333h-18.667c-1.473 0-2.667 1.194-2.667 2.667v18.667c0 1.473 1.194 2.667 2.667 2.667h18.667c1.473 0 2.667-1.194 2.667-2.667v-18.667c0-1.473-1.194-2.667-2.667-2.667z"></path>
<path fill="none" stroke="#fff" style="stroke: var(--color1, #fff)" stroke-linejoin="round" stroke-linecap="round" stroke-miterlimit="4" stroke-width="3.5556" d="M20.69 2.667v5.333"></path>
<path fill="none" stroke="#fff" style="stroke: var(--color1, #fff)" stroke-linejoin="round" stroke-linecap="round" stroke-miterlimit="4" stroke-width="3.5556" d="M10.023 2.667v5.333"></path>
<path fill="none" stroke="#fff" style="stroke: var(--color1, #fff)" stroke-linejoin="round" stroke-linecap="round" stroke-miterlimit="4" stroke-width="3.5556" d="M3.357 13.333h24"></path>
</symbol>
<symbol id="icon-instagram" viewBox="0 0 32 32">
<path fill="#fff" style="fill: var(--color1, #fff)" d="M16 8.191c-4.222 0-7.587 3.431-7.587 7.587 0 4.222 3.365 7.587 7.587 7.587 4.156 0 7.587-3.365 7.587-7.587 0-4.156-3.431-7.587-7.587-7.587zM16 20.726c-2.705 0-4.948-2.177-4.948-4.948 0-2.705 2.177-4.882 4.948-4.882 2.705 0 4.882 2.177 4.882 4.882 0 2.771-2.177 4.948-4.882 4.948zM25.632 7.927c0-0.99-0.792-1.781-1.781-1.781s-1.781 0.792-1.781 1.781 0.792 1.781 1.781 1.781c0.99 0 1.781-0.792 1.781-1.781zM30.646 9.708c-0.132-2.375-0.66-4.486-2.375-6.201s-3.826-2.243-6.201-2.375c-2.441-0.132-9.764-0.132-12.205 0-2.375 0.132-4.42 0.66-6.201 2.375-1.715 1.715-2.243 3.826-2.375 6.201-0.132 2.441-0.132 9.764 0 12.205 0.132 2.375 0.66 4.42 2.375 6.201 1.781 1.715 3.826 2.243 6.201 2.375 2.441 0.132 9.764 0.132 12.205 0 2.375-0.132 4.486-0.66 6.201-2.375 1.715-1.781 2.243-3.826 2.375-6.201 0.132-2.441 0.132-9.764 0-12.205zM27.479 24.486c-0.462 1.319-1.517 2.309-2.771 2.837-1.979 0.792-6.597 0.594-8.708 0.594-2.177 0-6.795 0.198-8.708-0.594-1.319-0.528-2.309-1.517-2.837-2.837-0.792-1.913-0.594-6.531-0.594-8.708 0-2.111-0.198-6.729 0.594-8.708 0.528-1.253 1.517-2.243 2.837-2.771 1.913-0.792 6.531-0.594 8.708-0.594 2.111 0 6.729-0.198 8.708 0.594 1.253 0.462 2.243 1.517 2.771 2.771 0.792 1.979 0.594 6.597 0.594 8.708 0 2.177 0.198 6.795-0.594 8.708z"></path>
</symbol>
<symbol id="icon-pattern" viewBox="0 0 137 32">
<path fill="#5c8692" style="fill: var(--color2, #5c8692)" d="M137.143 16c0 7.574-6.14 13.714-13.714 13.714s-13.714-6.14-13.714-13.714c0-7.574 6.14-13.714 13.714-13.714s13.714 6.14 13.714 13.714z"></path>
<path fill="#5c8692" style="fill: var(--color2, #5c8692)" d="M82.286 16c0 7.574-6.14 13.714-13.714 13.714s-13.714-6.14-13.714-13.714c0-7.574 6.14-13.714 13.714-13.714s13.714 6.14 13.714 13.714z"></path>
<path fill="#5c8692" style="fill: var(--color2, #5c8692)" d="M27.429 16c0 7.574-6.14 13.714-13.714 13.714s-13.714-6.14-13.714-13.714c0-7.574 6.14-13.714 13.714-13.714s13.714 6.14 13.714 13.714z"></path>
</symbol>
<symbol id="icon-menu" viewBox="0 0 32 32">
<path fill="#e8eaed" style="fill: var(--color3, #e8eaed)" d="M4 24v-2.667h24v2.667h-24zM4 17.333v-2.667h24v2.667h-24zM4 10.667v-2.667h24v2.667h-24z"></path>
</symbol>
<symbol id="icon-service" viewBox="0 0 32 32">
<path fill="none" stroke="#5c8692" style="stroke: var(--color2, #5c8692)" stroke-linejoin="round" stroke-linecap="round" stroke-miterlimit="4" stroke-width="2.6667" d="M2.667 4h8c1.415 0 2.771 0.562 3.771 1.562s1.562 2.357 1.562 3.771v18.667c0-1.061-0.421-2.078-1.172-2.828s-1.768-1.172-2.828-1.172h-9.333v-20z"></path>
<path fill="none" stroke="#5c8692" style="stroke: var(--color2, #5c8692)" stroke-linejoin="round" stroke-linecap="round" stroke-miterlimit="4" stroke-width="2.6667" d="M29.333 4h-8c-1.415 0-2.771 0.562-3.771 1.562s-1.562 2.357-1.562 3.771v18.667c0-1.061 0.421-2.078 1.172-2.828s1.768-1.172 2.828-1.172h9.333v-20z"></path>
</symbol>
<symbol id="icon-edit" viewBox="0 0 33 32">
<path fill="none" stroke="#5c8692" style="stroke: var(--color2, #5c8692)" stroke-linejoin="round" stroke-linecap="round" stroke-miterlimit="4" stroke-width="2.7826" d="M15.362 5.334h-9.333c-0.707 0-1.386 0.281-1.886 0.781s-0.781 1.178-0.781 1.886v18.667c0 0.707 0.281 1.386 0.781 1.886s1.178 0.781 1.886 0.781h18.667c0.707 0 1.385-0.281 1.886-0.781s0.781-1.178 0.781-1.886v-9.333"></path>
<path fill="none" stroke="#5c8692" style="stroke: var(--color2, #5c8692)" stroke-linejoin="round" stroke-linecap="round" stroke-miterlimit="4" stroke-width="2.7826" d="M25.362 3.334c0.53-0.53 1.25-0.828 2-0.828s1.47 0.298 2 0.828c0.53 0.53 0.829 1.25 0.829 2s-0.298 1.47-0.829 2l-12.667 12.667-5.333 1.333 1.333-5.333 12.667-12.667z"></path>
</symbol>
<symbol id="icon-great-service" viewBox="0 0 31 32">
<path fill="#7a9ca5" style="fill: var(--color4, #7a9ca5)" d="M4.872 25.113c-0.094 0.238-0.322 0.383-0.563 0.383-0.074 0-0.15-0.014-0.223-0.043-2.317-0.92-3.722-2.102-4.066-3.418-0.085-0.324 0.109-0.656 0.433-0.74s0.655 0.109 0.739 0.434c0.238 0.913 1.425 1.836 3.342 2.598 0.31 0.123 0.462 0.476 0.339 0.787zM6.93 18.761c0.114 0.097 0.254 0.145 0.392 0.145 0.171 0 0.341-0.073 0.461-0.213 0.217-0.255 0.186-0.638-0.068-0.856-0.3-0.256-0.594-0.528-0.873-0.808-2.661-2.667-4.055-6.056-3.632-8.758 1.135-0.178 2.392-0.034 3.665 0.392 0.054 0.028 0.113 0.049 0.174 0.060 1.695 0.601 3.411 1.695 4.901 3.188 0.375 0.375 0.732 0.774 1.061 1.184 0.21 0.261 0.591 0.302 0.851 0.092s0.301-0.592 0.092-0.853c-0.357-0.444-0.743-0.874-1.148-1.281-1.53-1.534-3.296-2.683-5.070-3.361-0.043-1.098 0.142-2.099 0.535-2.889 1 0.218 2.035 0.827 2.965 1.751-0.129 0.518-0.233 1.054-0.308 1.603-0.045 0.332 0.186 0.638 0.518 0.683s0.637-0.187 0.682-0.519c0.407-2.973 1.695-5.469 3.477-6.773 1.782 1.304 3.070 3.799 3.477 6.772 0.045 0.332 0.35 0.564 0.682 0.519s0.563-0.352 0.518-0.683c-0.075-0.549-0.179-1.084-0.308-1.601 0.93-0.923 1.966-1.533 2.965-1.751 0.392 0.79 0.578 1.792 0.535 2.889-1.775 0.679-3.54 1.828-5.070 3.361-0.406 0.407-0.792 0.837-1.148 1.281-0.21 0.261-0.169 0.643 0.092 0.853s0.642 0.169 0.852-0.092c0.329-0.41 0.686-0.808 1.061-1.184 1.49-1.493 3.205-2.588 4.9-3.188 0.062-0.011 0.121-0.032 0.175-0.060 1.273-0.425 2.53-0.57 3.665-0.392 0.422 2.702-0.971 6.092-3.632 8.758-0.279 0.28-0.573 0.551-0.873 0.808-0.254 0.217-0.285 0.6-0.069 0.856s0.599 0.286 0.854 0.069c0.325-0.277 0.643-0.571 0.945-0.874 3.076-3.082 4.6-7.113 3.884-10.269-0.051-0.228-0.229-0.405-0.456-0.457-1.224-0.279-2.579-0.219-3.961 0.14-0.013-1.336-0.331-2.553-0.92-3.49-0.124-0.197-0.35-0.306-0.582-0.279-1.216 0.141-2.474 0.748-3.605 1.73-0.782-2.19-2.063-3.956-3.656-4.96-0.197-0.124-0.448-0.124-0.645 0-1.592 1.004-2.874 2.771-3.656 4.96-1.131-0.982-2.387-1.589-3.605-1.73-0.232-0.027-0.457 0.082-0.581 0.279-0.588 0.937-0.905 2.153-0.918 3.49-1.381-0.359-2.737-0.419-3.961-0.14-0.227 0.052-0.404 0.23-0.456 0.457-0.717 3.156 0.808 7.186 3.884 10.269 0.301 0.302 0.619 0.595 0.944 0.873zM6.643 23.506c0.111-0.316-0.056-0.662-0.372-0.773-1.827-0.64-2.918-1.449-2.918-2.164 0-0.462 0.475-0.984 1.338-1.47 0.291-0.164 0.395-0.534 0.231-0.826s-0.533-0.396-0.824-0.231c-1.298 0.731-1.956 1.581-1.956 2.528 0 1.311 1.29 2.454 3.729 3.31 0.066 0.023 0.133 0.034 0.2 0.034 0.251-0.001 0.484-0.158 0.571-0.408zM24.815 22.776c-0.316 0.108-0.486 0.452-0.378 0.77 0.086 0.253 0.321 0.412 0.573 0.412 0.064 0 0.13-0.011 0.195-0.033 2.526-0.859 3.862-2.020 3.862-3.355 0-0.912-0.613-1.737-1.822-2.451-0.288-0.17-0.659-0.074-0.829 0.215s-0.074 0.661 0.214 0.831c0.79 0.466 1.225 0.966 1.225 1.405-0.001 0.724-1.165 1.569-3.040 2.207zM21.609 27.21c0 0.614-0.499 1.115-1.113 1.115-0.335 0-0.606 0.272-0.606 0.607s0.271 0.607 0.606 0.607c1.281 0 2.324-1.044 2.324-2.329 0-0.335-0.271-0.607-0.606-0.607s-0.605 0.272-0.605 0.607zM30.693 21.294c-0.323-0.084-0.655 0.109-0.739 0.434-0.238 0.914-1.424 1.836-3.341 2.598-0.311 0.124-0.463 0.476-0.34 0.788 0.094 0.238 0.322 0.383 0.563 0.383 0.074 0 0.15-0.014 0.223-0.043 2.317-0.921 3.723-2.103 4.067-3.419 0.084-0.324-0.11-0.655-0.434-0.74zM19.934 21.558c0 0.331-0.268 0.599-0.598 0.599-0.335 0-0.605 0.272-0.605 0.607s0.271 0.607 0.605 0.607c0.998 0 1.809-0.813 1.809-1.813 0-0.335-0.271-0.607-0.606-0.607s-0.606 0.272-0.606 0.607zM18.203 17.683h0.158c0.334 0 0.605-0.272 0.605-0.607s-0.271-0.607-0.605-0.607h-0.158c-0.335 0-0.606 0.272-0.606 0.607s0.272 0.607 0.606 0.607zM24.458 24.639c0.555 0.771 0.848 1.681 0.848 2.63 0 2.489-2.020 4.514-4.504 4.514h-10.396c-2.483 0-4.504-2.024-4.504-4.513 0-1.651 0.913-3.162 2.33-3.949-0.198-0.449-0.308-0.947-0.308-1.468 0-1.587 1.018-2.941 2.434-3.44-0.313-0.454-0.496-1.003-0.496-1.596 0-1.551 1.259-2.813 2.807-2.813h5.871c1.548 0 2.807 1.262 2.807 2.813s-1.259 2.813-2.807 2.813h-5.871c-0.377 0-0.736-0.075-1.066-0.21-0.014 0.001-0.028 0.002-0.042 0.002-1.338 0-2.427 1.091-2.427 2.432 0 0.501 0.152 0.969 0.413 1.356 0.020 0.025 0.039 0.052 0.056 0.080 0.442 0.603 1.155 0.996 1.957 0.996h8.086c1.338 0 2.427-1.091 2.427-2.432 0-0.722-0.321-1.404-0.881-1.87-0.257-0.214-0.292-0.597-0.079-0.855s0.596-0.293 0.853-0.079c0.837 0.698 1.318 1.719 1.318 2.803 0 2.010-1.632 3.645-3.638 3.645h-8.086c-1.048 0-1.994-0.447-2.659-1.16-1.085 0.562-1.789 1.694-1.789 2.933 0 1.82 1.477 3.3 3.293 3.3h10.396c1.816 0 3.293-1.481 3.293-3.299 0-0.692-0.214-1.356-0.62-1.92-0.195-0.272-0.134-0.651 0.137-0.847s0.649-0.135 0.845 0.137zM11.073 16.816c0 0.882 0.716 1.6 1.596 1.6h5.871c0.88 0 1.596-0.718 1.596-1.6s-0.716-1.6-1.596-1.6h-5.871c-0.88 0-1.596 0.717-1.596 1.6z"></path>
</symbol>
<symbol id="icon-quote" viewBox="0 0 41 32">
<path fill="#fff" style="fill: var(--color1, #fff)" d="M40.007 16l-15.792 15.792v-31.584h15.792v15.792z"></path>
<path fill="#fff" style="fill: var(--color1, #fff)" d="M15.792 16l-15.792 15.792v-31.584h15.792v15.792z"></path>
</symbol>
<symbol id="icon-data" viewBox="0 0 30 32">
<path fill="none" stroke="#fff" style="stroke: var(--color1, #fff)" stroke-linejoin="round" stroke-linecap="round" stroke-miterlimit="4" stroke-width="3.5556" d="M24.69 5.333h-18.667c-1.473 0-2.667 1.194-2.667 2.667v18.667c0 1.473 1.194 2.667 2.667 2.667h18.667c1.473 0 2.667-1.194 2.667-2.667v-18.667c0-1.473-1.194-2.667-2.667-2.667z"></path>
<path fill="none" stroke="#fff" style="stroke: var(--color1, #fff)" stroke-linejoin="round" stroke-linecap="round" stroke-miterlimit="4" stroke-width="3.5556" d="M20.69 2.667v5.333"></path>
<path fill="none" stroke="#fff" style="stroke: var(--color1, #fff)" stroke-linejoin="round" stroke-linecap="round" stroke-miterlimit="4" stroke-width="3.5556" d="M10.023 2.667v5.333"></path>
<path fill="none" stroke="#fff" style="stroke: var(--color1, #fff)" stroke-linejoin="round" stroke-linecap="round" stroke-miterlimit="4" stroke-width="3.5556" d="M3.357 13.333h24"></path>
</symbol>
<symbol id="icon-beauty" viewBox="0 0 21 32">
<path fill="#7a9ca5" style="fill: var(--color4, #7a9ca5)" d="M15.776 12.852c-0.449-0.292-1.264-0.465-2.182-0.465s-1.732 0.174-2.181 0.465c-0.223 0.144-0.285 0.441-0.141 0.663s0.441 0.285 0.664 0.141c0.239-0.155 0.844-0.311 1.659-0.311s1.42 0.156 1.659 0.311c0.081 0.052 0.171 0.078 0.261 0.078 0.157 0 0.311-0.077 0.403-0.218 0.144-0.223 0.081-0.52-0.141-0.664z"></path>
<path fill="#7a9ca5" style="fill: var(--color4, #7a9ca5)" d="M13.399 19.33c-0.176-0.198-0.48-0.215-0.677-0.038-0.289 0.258-1.014 0.518-1.982 0.518s-1.693-0.261-1.982-0.518c-0.198-0.176-0.501-0.16-0.677 0.038s-0.16 0.501 0.038 0.677c0.534 0.478 1.515 0.763 2.621 0.763s2.087-0.285 2.621-0.763c0.198-0.177 0.215-0.48 0.038-0.677z"></path>
<path fill="#7a9ca5" style="fill: var(--color4, #7a9ca5)" d="M9.605 15.101c-0.179-0.196-0.482-0.21-0.677-0.031-0.139 0.126-0.524 0.263-1.042 0.263s-0.904-0.136-1.042-0.263c-0.196-0.179-0.499-0.165-0.677 0.031s-0.165 0.499 0.031 0.677c0.353 0.322 0.984 0.513 1.689 0.513s1.337-0.192 1.689-0.514c0.195-0.178 0.21-0.482 0.031-0.677z"></path>
<path fill="#7a9ca5" style="fill: var(--color4, #7a9ca5)" d="M10.066 12.852c-0.449-0.292-1.264-0.465-2.181-0.465s-1.732 0.174-2.181 0.465c-0.222 0.144-0.285 0.441-0.141 0.663 0.092 0.141 0.246 0.218 0.403 0.218 0.089 0 0.18-0.025 0.261-0.078 0.239-0.155 0.844-0.311 1.659-0.311s1.42 0.156 1.659 0.311c0.223 0.144 0.52 0.081 0.663-0.141 0.144-0.221 0.081-0.518-0.141-0.663z"></path>
<path fill="#7a9ca5" style="fill: var(--color4, #7a9ca5)" d="M15.314 15.101c-0.179-0.196-0.482-0.21-0.677-0.031-0.139 0.126-0.524 0.263-1.042 0.263s-0.904-0.136-1.042-0.263c-0.195-0.179-0.499-0.165-0.677 0.031s-0.165 0.499 0.031 0.677c0.353 0.322 0.984 0.513 1.689 0.513s1.336-0.192 1.689-0.514c0.196-0.178 0.21-0.482 0.031-0.677z"></path>
<path fill="#7a9ca5" style="fill: var(--color4, #7a9ca5)" d="M20.036 28.522c-0.847-0.72-2.002-1.116-3.252-1.116-1.645 0-2.783-0.367-3.262-0.557v-2.175c2.466-0.894 4.384-2.942 5.097-5.489 1.544-0.194 2.744-1.517 2.744-3.11 0-1.473-1.042-2.738-2.442-3.058v-1.062c0.554-1.942 0.52-3.85 0.391-5.115-0.073-0.723-0.184-1.317-0.264-1.688-0.075-0.345-0.123-0.531-0.158-0.639-0.007-0.028-0.017-0.056-0.030-0.083-0.531-1.126-1.476-2.086-2.686-2.805-0.025-0.018-0.051-0.033-0.078-0.046-1.486-0.862-3.361-1.365-5.355-1.365-1.57 0-3.106 0.311-4.44 0.898-0.242 0.107-0.353 0.39-0.246 0.632s0.39 0.353 0.632 0.246c1.214-0.534 2.616-0.817 4.054-0.817 1.591 0 3.091 0.342 4.335 0.941-0.583 0.502-1.277 0.985-2.107 1.466-0.229 0.133-0.307 0.427-0.174 0.656 0.089 0.153 0.25 0.239 0.415 0.239 0.082 0 0.165-0.021 0.24-0.065 1.005-0.583 1.829-1.174 2.51-1.798 0.832 0.545 1.495 1.224 1.917 2.001-0.017 0.027-0.034 0.052-0.051 0.079-0.012 0.017-0.023 0.035-0.035 0.052-1.050 1.53-3.279 2.996-6.504 4.277-0.019 0.007-0.039 0.015-0.058 0.023-0.070 0.028-0.141 0.056-0.211 0.083-3.207 1.239-6.479 1.967-7.631 2.203-0.262-1.062-0.345-2.11-0.335-3.046 0.399-0.080 0.796-0.195 1.184-0.306 0.304-0.088 0.618-0.179 0.922-0.249 0.005-0.001 0.010-0.002 0.015-0.004 1.972-0.522 3.913-1.227 6.293-2.287 0.242-0.108 0.351-0.391 0.243-0.633s-0.391-0.351-0.633-0.243c-2.328 1.037-4.223 1.726-6.14 2.234-0.326 0.076-0.651 0.17-0.965 0.26-0.3 0.087-0.59 0.17-0.873 0.237 0.104-1.34 0.359-2.303 0.411-2.487 0.332-0.689 0.857-1.314 1.562-1.862 0.21-0.162 0.247-0.464 0.085-0.673s-0.464-0.247-0.673-0.085c-0.837 0.65-1.462 1.404-1.858 2.244-0.010 0.022-0.018 0.043-0.025 0.066-0.046 0.151-1.102 3.727-0.036 7.459v1.062c-1.399 0.317-2.442 1.584-2.442 3.056 0 1.593 1.201 2.916 2.744 3.11 0.713 2.547 2.631 4.594 5.097 5.489v2.175c-0.48 0.191-1.618 0.558-3.262 0.558-1.25 0-2.405 0.396-3.252 1.116-0.855 0.726-1.327 1.712-1.327 2.774 0 0.265 0.215 0.48 0.48 0.48h20.287c0.265 0 0.48-0.215 0.48-0.48 0-1.062-0.472-2.048-1.327-2.775zM18.841 18.116c0.052-0.376 0.079-0.756 0.079-1.135v-2.968c0.863 0.292 1.483 1.116 1.483 2.062 0 0.987-0.664 1.825-1.568 2.089 0.002-0.016 0.004-0.033 0.006-0.049zM1.076 16.075c0-0.946 0.62-1.77 1.483-2.062v2.968c0 0.38 0.027 0.759 0.079 1.135 0.002 0.016 0.004 0.033 0.006 0.049-0.904-0.264-1.568-1.102-1.568-2.089zM18.055 5.959c0.011-0.012 0.022-0.025 0.033-0.038 0.030-0.035 0.060-0.069 0.089-0.104 0.006-0.007 0.012-0.014 0.017-0.020 0.218 1.213 0.44 3.345-0.1 5.534-0.955-0.195-3.366-0.727-5.982-1.608 2.741-1.134 4.731-2.394 5.943-3.765zM3.634 18.27c-0.001-0.005-0.002-0.011-0.003-0.015-0.076-0.42-0.112-0.847-0.112-1.274v-4.697c0.004-0.001 0.009-0.002 0.014-0.003 0.743-0.148 1.481-0.321 2.216-0.505 0.774-0.194 1.544-0.403 2.309-0.631 0.501-0.149 1.001-0.306 1.496-0.472 0.009-0.003 0.018-0.006 0.027-0.009h2.318c2.675 0.894 5.131 1.431 6.062 1.619v4.697c0 0.426-0.038 0.854-0.113 1.274-0.001 0.005-0.002 0.010-0.002 0.015-0.491 2.715-2.505 4.906-5.121 5.655-0.004 0.001-0.009 0.002-0.013 0.004-0.64 0.18-1.306 0.274-1.972 0.274-0.664 0-1.335-0.089-1.973-0.274-0.003-0.001-0.006-0.002-0.009-0.002-2.618-0.748-4.633-2.94-5.124-5.656zM1.121 30.817c0.114-0.592 0.44-1.136 0.943-1.564 0.674-0.573 1.608-0.888 2.631-0.888 2.469 0 3.907-0.749 3.967-0.781 0.157-0.083 0.255-0.246 0.255-0.424v-2.203c0.001 0.183 1.725 0.204 1.822 0.204 0.613 0 1.224-0.068 1.822-0.204v2.204c0 0.178 0.098 0.34 0.255 0.424 0.060 0.032 1.498 0.781 3.967 0.781 1.023 0 1.957 0.315 2.631 0.888 0.504 0.428 0.829 0.972 0.943 1.564l-19.235-0.001z"></path>
</symbol>
<symbol id="icon-tips" viewBox="0 0 32 32">
<path fill="none" stroke="#1e2c30" style="stroke: var(--color5, #1e2c30)" stroke-linejoin="miter" stroke-linecap="butt" stroke-miterlimit="4" stroke-width="0.3556" d="M0.178 0.178h31.644v31.644h-31.644v-31.644z"></path>
<path fill="#5c8692" style="fill: var(--color2, #5c8692)" d="M1.778 1.778h28.444v28.444h-28.444v-28.444z"></path>
<path fill="none" stroke="#fff" style="stroke: var(--color1, #fff)" stroke-linejoin="round" stroke-linecap="round" stroke-miterlimit="4" stroke-width="1.0667" d="M20.978 12.8l-6.844 6.756-3.111-3.071"></path>
</symbol>
<symbol id="icon-logo" viewBox="0 0 31 32">
<path fill="none" stroke="#7a9ca5" style="stroke: var(--color4, #7a9ca5)" stroke-linejoin="miter" stroke-linecap="butt" stroke-miterlimit="4" stroke-width="2.3529" d="M29.882 16c0 7.927-6.426 14.353-14.353 14.353s-14.353-6.426-14.353-14.353c0-7.927 6.426-14.353 14.353-14.353s14.353 6.426 14.353 14.353z"></path>
<path fill="none" stroke="#7a9ca5" style="stroke: var(--color4, #7a9ca5)" stroke-linejoin="round" stroke-linecap="round" stroke-miterlimit="4" stroke-width="2.3529" d="M23.309 11.938c0.118 1.228-0.326 2.459-1.235 3.423l-5.442 5.785-7.496 0.721-0.631-6.555 5.451-5.778c0.909-0.964 2.209-1.581 3.613-1.716l4.911 0.118 0.829 4.002z"></path>
<path fill="none" stroke="#7a9ca5" style="stroke: var(--color4, #7a9ca5)" stroke-linejoin="round" stroke-linecap="round" stroke-miterlimit="4" stroke-width="2.3529" d="M18.824 11.765l-14.118 14.118"></path>
<path fill="none" stroke="#7a9ca5" style="stroke: var(--color4, #7a9ca5)" stroke-linejoin="round" stroke-linecap="round" stroke-miterlimit="4" stroke-width="2.3529" d="M19.765 17.412h-6.588"></path>
<path fill="none" stroke="#7a9ca5" style="stroke: var(--color4, #7a9ca5)" stroke-linejoin="round" stroke-linecap="round" stroke-miterlimit="4" stroke-width="2.3529" d="M18.824 11.765h-6.588"></path>
</symbol>
<symbol id="icon-mail" viewBox="0 0 32 32">
<path fill="none" stroke="#5c8692" style="stroke: var(--color2, #5c8692)" stroke-linejoin="round" stroke-linecap="round" stroke-miterlimit="4" stroke-width="2.6667" d="M5.333 5.333h21.333c1.467 0 2.667 1.2 2.667 2.667v16c0 1.467-1.2 2.667-2.667 2.667h-21.333c-1.467 0-2.667-1.2-2.667-2.667v-16c0-1.467 1.2-2.667 2.667-2.667z"></path>
<path fill="none" stroke="#5c8692" style="stroke: var(--color2, #5c8692)" stroke-linejoin="round" stroke-linecap="round" stroke-miterlimit="4" stroke-width="2.6667" d="M29.333 8l-13.333 9.333-13.333-9.333"></path>
</symbol>
<symbol id="icon-phone" viewBox="0 0 32 32">
<path fill="none" stroke="#5c8692" style="stroke: var(--color2, #5c8692)" stroke-linejoin="round" stroke-linecap="round" stroke-miterlimit="4" stroke-width="2.6667" d="M29.333 22.56v4c0.002 0.371-0.075 0.739-0.223 1.079s-0.367 0.646-0.641 0.897c-0.274 0.251-0.597 0.442-0.948 0.561s-0.725 0.163-1.094 0.13c-4.103-0.446-8.044-1.848-11.507-4.093-3.222-2.047-5.953-4.778-8-8-2.253-3.478-3.656-7.439-4.093-11.56-0.033-0.369 0.010-0.74 0.129-1.091s0.308-0.673 0.558-0.947c0.25-0.273 0.553-0.492 0.892-0.641s0.705-0.227 1.075-0.227h4c0.647-0.006 1.274 0.223 1.765 0.645s0.811 1.008 0.902 1.649c0.169 1.28 0.482 2.537 0.933 3.747 0.179 0.477 0.218 0.996 0.112 1.495s-0.353 0.956-0.712 1.319l-1.693 1.693c1.898 3.338 4.662 6.102 8 8l1.693-1.693c0.363-0.359 0.82-0.606 1.319-0.712s1.017-0.067 1.494 0.112c1.21 0.451 2.467 0.765 3.747 0.933 0.648 0.091 1.239 0.418 1.662 0.917s0.647 1.136 0.631 1.79z"></path>
</symbol>
<symbol id="icon-user" viewBox="0 0 32 32">
<path fill="none" stroke="#5c8692" style="stroke: var(--color2, #5c8692)" stroke-linejoin="round" stroke-linecap="round" stroke-miterlimit="4" stroke-width="2.6667" d="M26.667 28v-2.667c0-1.415-0.562-2.771-1.562-3.771s-2.357-1.562-3.771-1.562h-10.667c-1.415 0-2.771 0.562-3.771 1.562s-1.562 2.357-1.562 3.771v2.667"></path>
<path fill="none" stroke="#5c8692" style="stroke: var(--color2, #5c8692)" stroke-linejoin="round" stroke-linecap="round" stroke-miterlimit="4" stroke-width="2.6667" d="M16 14.667c2.945 0 5.333-2.388 5.333-5.333s-2.388-5.333-5.333-5.333c-2.946 0-5.333 2.388-5.333 5.333s2.388 5.333 5.333 5.333z"></path>
</symbol>
<symbol id="icon-call" viewBox="0 0 32 32">
<path fill="none" stroke="#7a9ca5" style="stroke: var(--color4, #7a9ca5)" stroke-linejoin="round" stroke-linecap="round" stroke-miterlimit="4" stroke-width="2.7826" d="M19.392 6.957c1.359 0.265 2.608 0.93 3.587 1.909s1.644 2.228 1.909 3.587l-5.496-5.496zM19.392 1.391c2.823 0.314 5.456 1.578 7.466 3.585s3.277 4.639 3.595 7.462l-11.061-11.047zM29.062 23.541v4.174c0.002 0.387-0.078 0.771-0.233 1.126s-0.383 0.674-0.668 0.936c-0.285 0.262-0.623 0.461-0.99 0.585s-0.756 0.17-1.142 0.135c-4.281-0.465-8.394-1.928-12.007-4.271-3.362-2.136-6.212-4.986-8.348-8.348-2.351-3.63-3.815-7.762-4.271-12.063-0.035-0.385 0.011-0.772 0.134-1.139s0.322-0.703 0.582-0.988c0.26-0.285 0.577-0.513 0.931-0.669s0.735-0.237 1.122-0.237h4.174c0.675-0.007 1.33 0.232 1.842 0.673s0.846 1.052 0.941 1.72c0.176 1.336 0.503 2.647 0.974 3.91 0.187 0.498 0.228 1.039 0.117 1.559s-0.369 0.998-0.743 1.376l-1.767 1.767c1.981 3.483 4.865 6.367 8.348 8.348l1.767-1.767c0.378-0.374 0.856-0.632 1.376-0.743s1.062-0.070 1.559 0.117c1.262 0.471 2.574 0.798 3.91 0.974 0.676 0.095 1.293 0.436 1.734 0.957s0.676 1.186 0.659 1.868z"></path>
</symbol>
<symbol id="icon-Genuine" viewBox="0 0 27 32">
<path fill="#7a9ca5" style="fill: var(--color4, #7a9ca5)" d="M5.209 12.963c0.345 0 0.625-0.28 0.625-0.625s-0.28-0.625-0.625-0.625c-0.345 0-0.625 0.28-0.625 0.625s0.28 0.625 0.625 0.625z"></path>
<path fill="#7a9ca5" style="fill: var(--color4, #7a9ca5)" d="M26.335 11.683c-0.393-0.452-0.975-0.71-1.595-0.71h-5.053v-1.070c0-1.566-1.275-2.841-2.841-2.841h-0.489v-0.080c0-1.12-0.888-2.035-1.996-2.081v-1.065c0.464-0.109 0.867-0.265 1.206-0.47 0.63-0.382 0.902-0.844 1.020-1.163 0.263-0.714-0.014-1.533-0.63-1.863-0.175-0.093-0.361-0.141-0.553-0.141-0.418 0-0.81 0.232-1.047 0.612-0.12 0.078-0.578 0.315-1.745 0.315h-2.908c-1.477 0-2.395 1.010-2.395 2.636 0 0.797 0.574 1.446 1.28 1.446 0.629 0 1.154-0.515 1.26-1.191h1.397v0.885c-1.109 0.046-1.996 0.962-1.996 2.081v0.080h-0.49c-1.566 0-2.841 1.275-2.841 2.841v0.042h-1.831c-0.812 0-1.473 0.661-1.473 1.473v2.784c-0.444 0.38-0.726 0.943-0.726 1.571v0.918c-0.842 0.601-1.415 1.562-1.489 2.663-0.031 0.483-0.054 0.996-0.065 1.521-0.006 0.266 0.205 0.486 0.471 0.493s0.486-0.205 0.492-0.471c0.011-0.512 0.033-1.009 0.064-1.48 0.064-0.973 0.664-1.794 1.497-2.183 0.006-0.002 0.012-0.006 0.017-0.008 0.333-0.151 0.702-0.233 1.068-0.233h2.526c0.367 0 0.734 0.081 1.068 0.233 0.006 0.002 0.012 0.006 0.017 0.008 0.843 0.391 1.436 1.255 1.497 2.183 0.049 0.731 0.073 1.483 0.073 2.233 0 0.355-0.010 0.709-0.017 1.064-0.001 0.012-0.001 0.025-0.001 0.038-0.004 0.125-0.353 0.471-0.426 0.601-0.12 0.213-0.217 0.437-0.288 0.67-0.163 0.53-0.197 1.088-0.207 1.639-0.014 0.825 0.068 1.653 0.25 2.458 0.001 0.004 0.001 0.007 0.002 0.011-0.304 0.837-1.087 1.391-1.984 1.391h-2.494c-0.992 0-1.861-0.707-2.068-1.682-0.328-1.546-0.524-3.242-0.584-5.040-0.009-0.266-0.233-0.475-0.497-0.465-0.266 0.009-0.475 0.231-0.465 0.497 0.062 1.855 0.265 3.607 0.604 5.208 0.3 1.417 1.567 2.446 3.010 2.446h2.495c0.938 0 1.79-0.415 2.36-1.1 0.304 0.81 0.714 1.562 1.221 2.226 0.091 0.119 0.233 0.189 0.383 0.189h9.091c0.15 0 0.292-0.070 0.383-0.189 0.147-0.192 0.285-0.392 0.415-0.598h4.142c0.266 0 0.482-0.215 0.482-0.482v-3.977l1.144-8.262c0.036-0.264-0.148-0.507-0.411-0.543s-0.507 0.147-0.543 0.411l-0.915 6.609h-2.518c-0.033-0.317-0.102-0.629-0.214-0.927-0.343-0.915-1.046-1.636-1.926-2.013l-0.017-0.127-1.2-8.668c-0.004-0.031-0.007-0.062-0.008-0.093 0-0.002 0-0.003 0-0.005-0.009-0.312 0.159-0.593 0.402-0.777 0.196-0.148 0.452-0.223 0.696-0.223h5.319c0.341 0 0.658 0.138 0.868 0.38 0.179 0.206 0.258 0.461 0.222 0.718l-0.443 3.198c-0.036 0.264 0.148 0.507 0.411 0.543s0.507-0.147 0.543-0.411l0.443-3.198c0.074-0.538-0.086-1.065-0.451-1.483zM9.704 3.052c-0.222 0-0.498 0.025-0.658 0.201-0.125 0.138-0.14 0.331-0.14 0.508 0 0.284-0.167 0.482-0.317 0.482s-0.317-0.198-0.317-0.482c0-1.455 0.897-1.672 1.431-1.672h2.908c0.449 0 0.916-0.028 1.362-0.125 0.385-0.083 0.815-0.207 1.097-0.496 0.103-0.106 0.153-0.306 0.333-0.306 0.032 0 0.064 0.009 0.096 0.026 0.17 0.091 0.284 0.402 0.181 0.681-0.083 0.225-0.441 0.86-1.87 1.094-0.004 0.001-0.007 0.001-0.011 0.001-0.393 0.064-0.791 0.087-1.189 0.087l-2.908-0.001zM13.396 3.984v0.914h-1.186v-0.883c0.001 0.021 1.186-0.022 1.186-0.031zM11.334 5.862h2.939c0.617 0 1.12 0.502 1.12 1.12v0.080h-5.178v-0.080c0-0.617 0.502-1.12 1.12-1.12zM3.58 11.42v-0.002c0-0.281 0.228-0.509 0.509-0.509h2.239c0.011 0 0.022 0.001 0.032 0.002 0.002 0 0.004 0.001 0.006 0.001 0.565 0.041 0.471 0.699 0.471 1.094 0 0.48 0 0.959 0 1.439 0 0.099 0 0.198 0 0.298-0.124-0.023-0.251-0.035-0.377-0.035 0 0-2.502 0-2.503 0-0.117 0-0.253 0.034-0.376 0.030-0.036-0.767-0.001-1.547-0.001-2.316zM7.564 16.202c0-0.14-0.957-0.172-1.093-0.172h-2.524c-0.37 0-0.741 0.059-1.092 0.172v-0.43c0-0.596 0.507-1.104 1.104-1.104h2.503c0.362 0 0.712 0.188 0.915 0.488 0.211 0.313 0.188 0.686 0.188 1.046zM21.052 29.595c0.007-0.024 0.013-0.043 0.017-0.054 0.167-0.473 0.317-0.954 0.426-1.444 0.173-0.774 0.257-1.571 0.248-2.364h2.226v4.317c0 0-3.133 0-3.134 0 0.083 0.001 0.174-0.314 0.217-0.454zM20.535 24.091h-2.275c-0.266 0-0.482 0.215-0.482 0.482s0.215 0.482 0.482 0.482h2.487c0.002 0.020 0.003 0.041 0.005 0.062 0.15 1.996-0.313 4.077-1.484 5.721h-8.604c-0.591-0.828-1.018-1.8-1.266-2.85-0.225-0.956-0.296-1.954-0.214-2.933h7.149c0.266 0 0.482-0.215 0.482-0.482s-0.215-0.482-0.482-0.482h-6.938c0.125-0.296 0.305-0.567 0.535-0.801 0.481-0.491 1.168-0.784 1.863-0.784h6.346c0.22 0 0.438 0.028 0.647 0.083 0.772 0.201 1.434 0.752 1.75 1.502zM18.724 11.087c0-0.003-0.575 0.298-0.63 0.341-0.946 0.754-0.702 1.855-0.558 2.895l1.002 7.241c-0.003-0.001-0.006-0.001-0.010-0.001-0.055-0.006-0.11-0.011-0.166-0.014-0.012-0.001-0.024-0.002-0.036-0.002-0.062-0.003-0.125-0.006-0.189-0.006h-6.345c-0.306 0-0.61 0.040-0.906 0.117-0.144 0.038-0.286 0.084-0.423 0.138-0.051 0.020-0.372 0.132-0.373 0.174 0.001-0.107 0.001-0.214 0.001-0.32 0-0.772-0.025-1.544-0.075-2.297-0.036-0.549-0.204-1.090-0.481-1.565-0.126-0.215-0.275-0.418-0.443-0.602-0.087-0.096-0.179-0.186-0.276-0.272-0.036-0.032-0.289-0.195-0.289-0.229v-0.914c0-0.594-0.268-1.184-0.726-1.573v-2.782c0-0.035-0.002-0.069-0.004-0.102-0.001-0.007-0.001-0.014-0.002-0.021-0.047-0.562-0.41-1.036-0.912-1.241v-0.151c0-1.035 0.843-1.878 1.878-1.878h8.084c1.035 0 1.878 0.843 1.878 1.878 0.001 0.001 0.001 1.185 0.001 1.185z"></path>
</symbol>
<symbol id="icon-hero" viewBox="0 0 32 32">
<path fill="#5c8692" style="fill: var(--color2, #5c8692)" d="M32 16l-3.549-4.044 0.495-5.353-5.251-1.193-2.749-4.625-4.945 2.124-4.945-2.124-2.749 4.625-5.251 1.178 0.495 5.353-3.549 4.058 3.549 4.044-0.495 5.367 5.251 1.193 2.749 4.625 4.945-2.138 4.945 2.124 2.749-4.625 5.251-1.193-0.495-5.353 3.549-4.044zM17.455 23.273h-2.909v-2.909h2.909v2.909zM17.455 17.455h-2.909v-8.727h2.909v8.727z"></path>
</symbol>
<symbol id="icon-x" viewBox="0 0 42 32">
<path d="M37.494 8c1.538-1.154 2.923-2.538 4-4.154-1.385 0.615-3 1.077-4.615 1.231 1.692-1 2.923-2.538 3.538-4.462-1.538 0.923-3.308 1.615-5.077 2-1.538-1.615-3.615-2.538-5.923-2.538-4.462 0-8.077 3.615-8.077 8.077 0 0.615 0.077 1.231 0.231 1.846-6.692-0.385-12.692-3.615-16.692-8.462-0.692 1.154-1.077 2.538-1.077 4.077 0 2.769 1.385 5.231 3.615 6.692-1.308-0.077-2.615-0.385-3.692-1v0.077c0 3.923 2.769 7.154 6.462 7.923-0.615 0.154-1.385 0.308-2.077 0.308-0.538 0-1-0.077-1.538-0.154 1 3.231 4 5.538 7.538 5.615-2.769 2.154-6.231 3.462-10 3.462-0.692 0-1.308-0.077-1.923-0.154 3.538 2.308 7.769 3.616 12.385 3.616 14.846 0 22.923-12.231 22.923-22.923 0-0.385 0-0.692 0-1.077z"></path>
</symbol>
<symbol id="icon-linkidin" viewBox="0 0 32 32">
<path d="M8.561 30.933v-19.933h-6.2v19.933h6.2zM5.428 8.333c2 0 3.6-1.667 3.6-3.667 0-1.933-1.6-3.533-3.6-3.533-1.933 0-3.533 1.6-3.533 3.533 0 2 1.6 3.667 3.533 3.667zM31.695 30.933h0.067v-10.933c0-5.333-1.2-9.467-7.467-9.467-3 0-5 1.667-5.867 3.2h-0.067v-2.733h-5.933v19.933h6.2v-9.867c0-2.6 0.467-5.067 3.667-5.067s3.267 2.933 3.267 5.267v9.667h6.133z"></path>
</symbol>
<symbol id="icon-facebook" viewBox="0 0 19 32">
<path d="M16.201 17.882l0.824-5.412h-5.235v-3.529c0-1.529 0.706-2.941 3.059-2.941h2.412v-4.647c0 0-2.176-0.412-4.235-0.412-4.294 0-7.118 2.647-7.118 7.353v4.176h-4.824v5.412h4.824v13.176h5.882v-13.176h4.412z"></path>
</symbol>
</defs>
</svg>
